<svg width="383" height="333" viewBox="0 0 383 333" fill="none" xmlns="http://www.w3.org/2000/svg">
<path d="M55.5266 17.7237C54.2776 18.4748 53.2054 19.4866 52.3834 20.6901C51.5614 21.8936 51.0089 23.2604 50.7636 24.6971C49.3872 24.2256 47.9255 24.0555 46.4776 24.1982C45.0297 24.3409 43.6293 24.7931 42.3714 25.5242C38.1361 28.034 35.5763 35.6348 42.8349 41.3176C50.0934 47.0003 62.7994 45.0538 62.7994 45.0538C62.7994 45.0538 70.6426 34.8291 69.1239 25.731C67.6052 16.6328 59.7619 15.2139 55.5266 17.7237Z" fill="#BDEAF5"/>
<path d="M340.349 19.4631C338.603 19.1156 336.802 19.1484 335.07 19.5593C333.338 19.9703 331.714 20.7497 330.31 21.8446C329.461 20.2745 328.283 18.9062 326.857 17.8332C325.431 16.7601 323.79 16.0076 322.046 15.6271C316.157 14.3936 307.572 19.1351 309.426 30.2511C311.28 41.3671 324.356 50.1229 324.356 50.1229C324.356 50.1229 339.872 47.3564 346.025 37.9232C352.178 28.4899 346.239 20.6966 340.349 19.4631Z" fill="#BDEAF5"/>
<path d="M121.688 2.45783C120.987 2.31653 120.264 2.32743 119.567 2.48983C118.871 2.65223 118.218 2.96233 117.652 3.39903C117.31 2.77303 116.837 2.22763 116.267 1.79963C115.696 1.37163 115.04 1.07093 114.343 0.917729C111.976 0.425729 108.532 2.34383 109.274 6.79303C110.015 11.2422 115.27 14.7717 115.27 14.7717C115.27 14.7717 121.495 13.6594 123.969 9.87323C126.443 6.08713 124.076 2.95703 121.688 2.45783Z" fill="#BDEAF5"/>
<path d="M348.642 94.1731C347.941 94.0321 347.218 94.0431 346.522 94.2051C345.825 94.3681 345.171 94.6781 344.605 95.1151C344.262 94.4881 343.789 93.9421 343.217 93.5141C342.645 93.0861 341.988 92.7861 341.29 92.6331C338.922 92.1411 335.479 94.0591 336.228 98.5091C336.977 102.958 342.225 106.487 342.225 106.487C342.225 106.487 348.441 105.375 350.915 101.589C353.39 97.8031 351.002 94.6731 348.642 94.1731Z" fill="#BDEAF5"/>
<path d="M244.655 187.358C245.646 186.809 293.554 194.488 297.005 186.345C300.456 178.203 292.926 173.511 292.926 173.511C292.926 173.511 320.021 172.72 319.479 165.917C318.937 159.115 315.322 157.247 315.322 157.247C315.322 157.247 333.675 155.044 334.574 148.94C335.472 142.837 324.905 139.243 324.905 139.243C324.905 139.243 348.371 136.577 342.168 129.261C335.964 121.945 308.941 130.231 308.399 129.261C307.857 128.291 313.076 106.245 301.875 114.38C294.925 119.582 289.221 126.265 285.176 133.946C285.176 133.946 286.003 119.507 277.368 126.437C268.734 133.368 264.17 149.254 264.17 149.254C264.17 149.254 263.75 139.165 256.284 145.882C248.819 152.598 244.655 187.358 244.655 187.358Z" fill="#92CFEC"/>
<path d="M230.509 201.968C235.144 195.873 240.112 190.039 245.389 184.492C251.094 175.023 254.659 154.224 254.694 154.017C254.705 153.897 254.74 153.78 254.798 153.674C254.856 153.568 254.935 153.475 255.03 153.401C255.126 153.327 255.236 153.273 255.353 153.243C255.47 153.214 255.592 153.209 255.711 153.228C255.83 153.248 255.944 153.292 256.045 153.358C256.147 153.424 256.233 153.51 256.3 153.611C256.367 153.711 256.412 153.825 256.432 153.944C256.453 154.063 256.449 154.185 256.42 154.302C256.292 155.015 253.76 169.889 249.397 180.335C251.963 177.725 254.759 174.994 257.76 172.22C259.735 170.395 261.853 168.506 264.099 166.573C270.994 154.003 273.875 135.678 273.903 135.493C273.938 135.264 274.063 135.058 274.249 134.921C274.436 134.784 274.669 134.727 274.898 134.762C275.127 134.797 275.332 134.921 275.469 135.108C275.606 135.295 275.664 135.528 275.629 135.757C275.629 135.928 273.19 151.3 267.472 163.743C269.404 162.153 271.429 160.548 273.525 158.937C273.603 158.85 273.698 158.78 273.803 158.73C278.203 155.372 282.951 152.028 288.007 148.855C294.959 134.017 296.67 123.949 296.684 123.849C296.737 123.636 296.869 123.45 297.052 123.329C297.235 123.208 297.458 123.161 297.675 123.196C297.892 123.23 298.087 123.346 298.224 123.518C298.36 123.691 298.426 123.908 298.41 124.127C298.345 124.527 296.827 133.475 290.68 147.208C291.959 146.433 293.257 145.67 294.574 144.919C294.684 144.809 294.822 144.731 294.973 144.691C304.908 138.977 315.536 134.563 326.595 131.557C326.819 131.498 327.057 131.531 327.257 131.648C327.457 131.765 327.603 131.957 327.661 132.181C327.72 132.405 327.687 132.643 327.57 132.843C327.453 133.043 327.261 133.188 327.037 133.247C317.408 135.842 308.112 139.546 299.336 144.284C307.217 144.097 315.039 145.673 322.232 148.898C322.44 148.999 322.599 149.178 322.674 149.397C322.75 149.616 322.736 149.855 322.634 150.063C322.533 150.271 322.354 150.431 322.135 150.506C321.916 150.582 321.677 150.567 321.469 150.466C321.34 150.409 309.019 144.505 295.557 146.366C289.237 149.967 283.139 153.946 277.297 158.281C291.393 157.283 305.583 163.743 306.224 164.042C306.419 164.146 306.568 164.32 306.639 164.529C306.711 164.738 306.7 164.966 306.609 165.168C306.519 165.369 306.355 165.528 306.151 165.613C305.947 165.698 305.718 165.702 305.511 165.625C305.347 165.547 289.062 158.138 274.58 160.334C268.719 164.826 263.472 169.333 258.987 173.475L257.161 175.179C270.288 172.819 283.108 177.682 283.686 177.91C283.901 177.994 284.075 178.159 284.169 178.37C284.262 178.582 284.268 178.821 284.185 179.037C284.102 179.252 283.936 179.426 283.725 179.52C283.514 179.613 283.274 179.619 283.058 179.536C282.909 179.479 268.249 173.917 254.737 177.497C246.495 185.404 238.867 193.928 231.921 202.994C231.854 203.088 231.769 203.168 231.672 203.228C231.574 203.289 231.465 203.329 231.351 203.347C231.238 203.365 231.122 203.36 231.01 203.333C230.898 203.305 230.793 203.256 230.701 203.187C230.517 203.049 230.393 202.844 230.357 202.616C230.321 202.389 230.375 202.156 230.509 201.968Z" fill="#BDEAF5"/>
<path d="M244.327 123.45C244.327 123.45 252.028 114.502 260.976 117.447C269.925 120.391 266.302 126.958 259.393 127.3C252.484 127.643 244.327 123.45 244.327 123.45Z" fill="#92CFEC"/>
<path d="M253.19 109.29C253.418 108.833 257.154 105.325 263.835 103.735C270.516 102.145 277.432 104.755 276.299 108.833C275.165 112.912 272.448 113.482 267.799 113.254C263.151 113.026 253.19 109.29 253.19 109.29Z" fill="#92CFEC"/>
<path d="M264.406 96.3771C267.973 93.5531 272.32 91.8901 276.862 91.6141C284.456 91.1651 285.81 97.8461 281.732 99.5431C277.653 101.24 264.406 96.3771 264.406 96.3771Z" fill="#92CFEC"/>
<path d="M267.464 92.298C267.464 92.298 278.224 90.822 283.436 86.972C288.648 83.122 285.361 74.287 277.882 77.909C270.402 81.531 267.464 92.298 267.464 92.298Z" fill="#92CFEC"/>
<path d="M258.288 97.5111C260.37 94.8451 261.832 91.7491 262.566 88.4481C263.7 83.1221 261.325 76.4411 256.677 77.7961C252.028 79.1501 253.824 85.6391 255.322 90.1451C256.125 92.6711 257.116 95.1331 258.288 97.5111Z" fill="#92CFEC"/>
<path d="M246.616 112.234C246.616 112.234 251.942 105.211 252.32 98.4162C252.698 91.6212 249.033 83.2361 242.915 87.0081C236.798 90.7791 246.616 112.234 246.616 112.234Z" fill="#92CFEC"/>
<path d="M237.91 126.281C237.91 126.281 242.666 118.573 241.988 111.443C241.311 104.313 236.099 99.6572 231.906 102.174C227.714 104.691 232.919 123.899 237.91 126.281Z" fill="#92CFEC"/>
<path d="M230.166 145.91C232.011 141.148 234.121 136.492 236.484 131.964C238.416 124.833 236.854 110.837 236.833 110.701C236.815 110.547 236.859 110.392 236.955 110.271C237.052 110.149 237.192 110.07 237.346 110.052C237.5 110.035 237.655 110.079 237.777 110.175C237.899 110.271 237.977 110.412 237.995 110.566C238.052 111.065 239.165 121.054 238.288 128.555C239.45 126.416 240.74 124.149 242.159 121.81C243.086 120.277 244.099 118.673 245.182 117.026C247.286 107.685 245.76 95.4001 245.739 95.2791C245.729 95.2031 245.734 95.1261 245.754 95.0521C245.774 94.9781 245.809 94.9091 245.856 94.8481C245.903 94.7881 245.962 94.7381 246.028 94.7001C246.095 94.6631 246.169 94.6391 246.245 94.6301C246.32 94.6191 246.397 94.6231 246.471 94.6421C246.545 94.6621 246.614 94.6961 246.675 94.7421C246.735 94.7891 246.786 94.8471 246.823 94.9131C246.861 94.9801 246.885 95.0531 246.894 95.1291C246.894 95.2431 248.199 105.546 246.822 114.587C247.773 113.204 248.771 111.804 249.817 110.388C249.852 110.317 249.901 110.254 249.96 110.202C252.163 107.236 254.594 104.22 257.247 101.247C258.972 90.4521 258.216 83.6781 258.202 83.6141C258.193 83.5371 258.199 83.4601 258.22 83.3861C258.241 83.3121 258.277 83.2431 258.324 83.1831C258.372 83.1231 258.431 83.0721 258.498 83.0351C258.565 82.9981 258.639 82.9741 258.716 82.9651C258.791 82.9561 258.867 82.9621 258.94 82.9831C259.013 83.0031 259.082 83.0381 259.141 83.0851C259.201 83.1321 259.251 83.1901 259.288 83.2571C259.325 83.3231 259.348 83.3961 259.357 83.4711C259.393 83.7421 260.07 89.7601 258.644 99.6991C259.319 98.9631 260.011 98.2351 260.719 97.5181C260.768 97.4221 260.845 97.3451 260.94 97.2971C266.246 91.7991 272.237 87.0061 278.766 83.0361C278.831 82.9971 278.904 82.9721 278.979 82.9611C279.055 82.9501 279.131 82.9541 279.205 82.9731C279.279 82.9921 279.348 83.0251 279.409 83.0711C279.47 83.1171 279.522 83.1741 279.561 83.2391C279.6 83.3051 279.625 83.3781 279.636 83.4531C279.647 83.5281 279.643 83.6051 279.624 83.6791C279.605 83.7531 279.572 83.8221 279.526 83.8831C279.48 83.9441 279.423 83.9961 279.357 84.0341C273.664 87.4781 268.386 91.5671 263.628 96.2201C268.648 94.6431 273.957 94.2151 279.165 94.9651C279.316 94.9911 279.451 95.0771 279.539 95.2031C279.627 95.3281 279.662 95.4841 279.636 95.6351C279.609 95.7871 279.524 95.9211 279.398 96.0091C279.272 96.0981 279.117 96.1321 278.965 96.1061C278.873 96.1061 269.881 94.5801 261.589 98.2451C258.2 101.72 255.024 105.397 252.077 109.254C260.933 106.017 271.222 107.543 271.693 107.614C271.842 107.642 271.974 107.727 272.062 107.851C272.15 107.975 272.186 108.128 272.163 108.278C272.14 108.428 272.059 108.563 271.938 108.655C271.817 108.746 271.665 108.787 271.514 108.769C271.393 108.769 259.585 106.994 250.701 111.079C247.771 115.036 245.24 118.922 243.122 122.373C242.837 122.858 242.551 123.329 242.266 123.8C250.252 119.864 259.379 120.627 259.785 120.662C259.932 120.685 260.065 120.763 260.157 120.88C260.248 120.998 260.292 121.145 260.278 121.294C260.264 121.442 260.195 121.579 260.083 121.678C259.972 121.777 259.827 121.829 259.678 121.824C259.571 121.824 249.147 120.947 241.14 125.732C237.313 132.324 233.995 139.198 231.214 146.295C231.174 146.406 231.1 146.502 231.003 146.569C230.906 146.637 230.791 146.673 230.673 146.673C230.607 146.687 230.539 146.687 230.473 146.673C230.402 146.644 230.338 146.6 230.285 146.546C230.231 146.491 230.189 146.427 230.16 146.356C230.132 146.285 230.117 146.209 230.118 146.132C230.12 146.056 230.136 145.98 230.166 145.91Z" fill="#83BBDA"/>
<path d="M268.634 188.756C268.634 188.756 284.834 185.697 292.035 196.706C299.237 207.715 289.561 211.729 281.725 206.082C273.889 200.435 268.634 188.756 268.634 188.756Z" fill="#BDEAF5"/>
<path d="M290.609 180.998C291.251 180.698 298.388 180.121 307.058 184.214C315.729 188.306 321.012 197.162 316.221 200.613C311.429 204.064 307.971 202.331 303.101 198.039C298.231 193.747 290.609 180.998 290.609 180.998Z" fill="#BDEAF5"/>
<path d="M314.089 176.67C320.445 176.696 326.639 178.672 331.836 182.331C340.514 188.442 336.178 196.92 330.246 195.223C324.314 193.526 314.089 176.67 314.089 176.67Z" fill="#BDEAF5"/>
<path d="M320.984 174.88C320.984 174.88 334.011 182.645 343.052 182.98C352.093 183.315 356.2 170.809 344.884 168.256C333.569 165.703 320.984 174.88 320.984 174.88Z" fill="#BDEAF5"/>
<path d="M306.431 172.577C311.032 171.495 315.332 169.398 319.016 166.438C324.891 161.611 328.114 152.249 321.868 149.689C315.622 147.129 311.971 155.75 309.633 161.981C308.302 165.428 307.231 168.97 306.431 172.577Z" fill="#BDEAF5"/>
<path d="M280.869 178.495C280.869 178.495 292.798 175.465 299.087 168.342C305.376 161.219 308.72 148.912 298.788 147.664C288.855 146.417 280.869 178.495 280.869 178.495Z" fill="#BDEAF5"/>
<path d="M259.122 186.224C259.122 186.224 271.023 181.946 276.492 173.583C281.96 165.219 280.32 155.593 273.575 154.666C266.83 153.739 255.736 179.287 259.122 186.224Z" fill="#BDEAF5"/>
<path d="M233.582 200.927C239.746 197.332 246.107 194.085 252.634 191.201C260.948 185.098 271.422 168.463 271.529 168.299C271.645 168.118 271.827 167.99 272.036 167.942C272.245 167.894 272.465 167.93 272.648 168.042C272.739 168.098 272.818 168.172 272.88 168.259C272.943 168.346 272.987 168.444 273.011 168.548C273.035 168.653 273.038 168.76 273.02 168.866C273.001 168.971 272.962 169.072 272.905 169.162C272.534 169.754 265.062 181.625 257.561 189.055C260.705 187.722 264.085 186.374 267.664 185.062C270.01 184.199 272.513 183.322 275.137 182.467C285.561 174.11 294.588 159.372 294.681 159.222C294.801 159.059 294.978 158.947 295.178 158.908C295.377 158.869 295.583 158.906 295.756 159.011C295.93 159.117 296.057 159.283 296.114 159.478C296.171 159.673 296.153 159.882 296.064 160.064C295.985 160.206 288.413 172.57 279.044 181.233C281.276 180.52 283.593 179.9 285.975 179.265C286.072 179.215 286.179 179.185 286.288 179.18C291.279 177.868 296.556 176.691 302.039 175.757C313.319 165.483 318.396 157.426 318.438 157.34C318.557 157.167 318.738 157.047 318.943 157.005C319.148 156.962 319.362 157.001 319.54 157.112C319.717 157.223 319.845 157.399 319.896 157.602C319.947 157.805 319.918 158.021 319.814 158.203C319.615 158.516 315.116 165.675 304.919 175.315C306.293 175.111 307.681 174.921 309.084 174.745C309.221 174.687 309.371 174.667 309.518 174.688C320.108 173.322 330.829 173.322 341.419 174.688C341.617 174.733 341.791 174.851 341.907 175.018C342.022 175.185 342.071 175.39 342.043 175.591C342.015 175.792 341.913 175.976 341.757 176.106C341.6 176.236 341.401 176.302 341.198 176.292C331.975 175.089 322.643 174.957 313.39 175.9C320.238 178.54 326.407 182.682 331.444 188.021C331.587 188.183 331.659 188.395 331.646 188.61C331.633 188.825 331.534 189.026 331.372 189.169C331.211 189.312 330.999 189.385 330.784 189.371C330.568 189.358 330.367 189.26 330.225 189.098C330.139 188.998 321.668 179.515 309.397 176.306C302.673 177.15 296.007 178.397 289.433 180.043C301.918 184.214 311.822 194.845 312.249 195.33C312.396 195.488 312.473 195.699 312.465 195.915C312.456 196.131 312.362 196.335 312.203 196.481C312.044 196.628 311.834 196.705 311.618 196.696C311.402 196.688 311.198 196.594 311.051 196.435C310.937 196.306 299.579 184.114 286.331 180.834C279.679 182.602 273.554 184.606 268.213 186.538L266.039 187.351C278.16 190.011 287.465 198.759 287.878 199.18C288.023 199.331 288.104 199.532 288.104 199.741C288.105 199.95 288.025 200.151 287.88 200.303C287.736 200.454 287.539 200.544 287.33 200.554C287.122 200.564 286.917 200.493 286.759 200.356C286.652 200.249 276.021 190.224 263.122 188.485C253.207 192.343 243.601 196.953 234.388 202.274C234.245 202.362 234.079 202.404 233.912 202.394C233.744 202.384 233.584 202.322 233.454 202.217C233.379 202.158 233.316 202.086 233.268 202.004C233.17 201.818 233.148 201.603 233.207 201.402C233.266 201.201 233.4 201.03 233.582 200.927Z" fill="#92CFEC"/>
<path d="M145.217 140.919C145.217 140.919 144.212 136.563 134.522 134.103C124.832 131.643 115.42 138.908 115.42 138.908C115.42 138.908 124.468 145.839 133.517 146.752C142.565 147.664 145.217 140.919 145.217 140.919Z" fill="#92CFEC"/>
<path d="M133.025 121.461C133.025 121.461 126.544 115.429 118.722 113.418C110.9 111.407 98.8276 121.012 98.8276 121.012C98.8276 121.012 108.554 126.152 119.278 126.381C130.002 126.609 133.025 121.461 133.025 121.461Z" fill="#92CFEC"/>
<path d="M116.262 103.022C112.762 99.839 108.481 97.642 103.855 96.655C95.9265 94.865 89.7803 104.027 89.7803 104.027C95.1525 105.969 100.824 106.954 106.536 106.936C115.271 106.694 116.262 103.022 116.262 103.022Z" fill="#92CFEC"/>
<path d="M114.023 98.5511C114.023 98.5511 113.802 90.3951 107.884 84.8121C101.966 79.2291 84.3039 80.5331 84.639 80.8971C84.9741 81.2611 91.9047 91.5141 100.732 94.8651C109.559 98.2161 114.023 98.5511 114.023 98.5511Z" fill="#92CFEC"/>
<path d="M124.54 105.703C121.446 102.794 119.503 98.8681 119.064 94.6441C118.279 87.5141 126.101 75.8701 126.101 75.8701C128.186 81.7121 129.17 87.8881 129.003 94.0881C128.775 104.591 124.54 105.703 124.54 105.703Z" fill="#92CFEC"/>
<path d="M140.846 126.045C140.846 126.045 136.483 121.91 135.477 110.844C134.472 99.7779 143.527 92.3049 143.527 92.3049C143.527 92.3049 148.668 101.132 148.219 111.635C147.77 122.138 140.846 126.045 140.846 126.045Z" fill="#92CFEC"/>
<path d="M153.139 145.596C153.139 145.596 149.446 141.91 148.775 133.639C148.105 125.368 155.15 113.674 155.15 113.674C158.243 119.291 159.892 125.587 159.948 131.999C160.063 142.694 153.139 145.596 153.139 145.596Z" fill="#92CFEC"/>
<path d="M163.656 171.65C161.088 165.019 158.151 158.537 154.857 152.235C152.176 142.316 154.351 122.851 154.373 122.651C154.384 122.546 154.375 122.439 154.346 122.338C154.316 122.236 154.267 122.141 154.201 122.058C154.134 121.975 154.053 121.906 153.96 121.855C153.867 121.804 153.765 121.772 153.66 121.76C153.554 121.748 153.448 121.758 153.346 121.787C153.244 121.817 153.149 121.866 153.066 121.932C152.983 121.998 152.915 122.08 152.863 122.173C152.812 122.266 152.78 122.368 152.768 122.473C152.69 123.186 151.135 137.061 152.355 147.493C150.736 144.513 148.939 141.361 146.971 138.11C145.681 135.971 144.276 133.746 142.765 131.45C139.834 118.466 141.966 101.368 141.987 101.197C142.001 101.091 141.993 100.984 141.965 100.882C141.936 100.78 141.888 100.684 141.823 100.6C141.758 100.516 141.677 100.446 141.584 100.394C141.492 100.341 141.39 100.308 141.285 100.295C141.18 100.282 141.073 100.289 140.971 100.318C140.868 100.346 140.772 100.394 140.689 100.459C140.605 100.524 140.535 100.605 140.482 100.698C140.43 100.79 140.396 100.892 140.383 100.997C140.383 101.154 138.572 115.486 140.483 128.092C139.161 126.19 137.771 124.241 136.312 122.245C136.262 122.149 136.197 122.063 136.119 121.988C133.053 117.867 129.702 113.667 125.98 109.532C123.577 94.516 124.633 85.09 124.647 84.997C124.659 84.79 124.592 84.586 124.459 84.427C124.326 84.268 124.138 84.165 123.932 84.141C123.726 84.116 123.519 84.171 123.352 84.295C123.185 84.418 123.072 84.6 123.035 84.804C122.993 85.175 122.051 93.553 124.019 107.378C123.069 106.361 122.104 105.349 121.124 104.341C121.056 104.213 120.952 104.106 120.825 104.034C113.442 96.379 105.105 89.705 96.0187 84.177C95.8333 84.067 95.6121 84.036 95.4035 84.089C95.195 84.143 95.0162 84.277 94.9064 84.462C94.8523 84.553 94.8169 84.654 94.802 84.759C94.7871 84.864 94.793 84.971 94.8195 85.074C94.846 85.177 94.8925 85.273 94.9564 85.358C95.0202 85.442 95.1001 85.514 95.1916 85.567C103.117 90.355 110.46 96.045 117.075 102.523C110.092 100.331 102.707 99.731 95.4625 100.769C95.3522 100.781 95.2455 100.816 95.1493 100.872C95.053 100.927 94.9691 101.002 94.9027 101.091C94.8363 101.18 94.7889 101.282 94.7634 101.39C94.7379 101.498 94.7348 101.61 94.7543 101.719C94.7738 101.829 94.8156 101.933 94.8769 102.025C94.9383 102.118 95.018 102.197 95.1111 102.258C95.2042 102.318 95.3087 102.359 95.4182 102.378C95.5277 102.396 95.6398 102.392 95.7477 102.366C95.8689 102.366 108.383 100.227 119.912 105.346C124.612 110.184 129.014 115.301 133.096 120.669C120.782 116.156 106.458 118.281 105.809 118.388C105.704 118.404 105.603 118.441 105.513 118.496C105.422 118.551 105.343 118.624 105.281 118.71C105.218 118.795 105.173 118.893 105.148 118.996C105.123 119.099 105.119 119.206 105.135 119.311C105.151 119.416 105.188 119.516 105.244 119.607C105.299 119.698 105.371 119.776 105.457 119.839C105.543 119.902 105.64 119.947 105.743 119.972C105.846 119.997 105.954 120.001 106.058 119.985C106.222 119.985 122.65 117.525 135.007 123.2C139.093 128.712 142.615 134.074 145.553 138.887C145.959 139.557 146.351 140.22 146.743 140.876C135.634 135.407 122.957 136.463 122.379 136.52C122.169 136.543 121.977 136.648 121.843 136.812C121.71 136.976 121.646 137.186 121.666 137.397C121.693 137.605 121.799 137.796 121.962 137.928C122.126 138.061 122.334 138.126 122.543 138.11C122.693 138.11 137.203 136.89 148.333 143.55C153.66 152.717 158.277 162.278 162.144 172.149C162.2 172.305 162.303 172.44 162.438 172.536C162.573 172.632 162.735 172.683 162.9 172.684C162.995 172.685 163.09 172.668 163.178 172.634C163.366 172.559 163.519 172.416 163.607 172.234C163.696 172.052 163.713 171.844 163.656 171.65Z" fill="#BDEAF5"/>
<path d="M135.235 187.586C133.41 185.703 113.36 187.721 97.3377 181.247C81.3162 174.773 76.3465 164.249 69.3303 159.821C62.3142 155.393 58.2286 151.978 54.4639 143.001C50.6992 134.024 34.6134 121.46 36.6384 121.175C38.6634 120.89 53.5298 122.123 67.7261 120.904C81.9223 119.685 90.671 127.607 95.8761 128.305C101.082 129.004 110.023 130.794 114.529 136.698C119.035 142.601 120.404 145.667 126.586 151.906C132.768 158.145 135.235 187.586 135.235 187.586Z" fill="#83BBDA"/>
<path d="M143.506 195.95C139.429 190.413 135.044 185.109 130.372 180.064C125.381 171.507 122.451 152.776 122.415 152.591C122.383 152.386 122.272 152.202 122.105 152.079C121.938 151.956 121.729 151.904 121.524 151.935C121.422 151.95 121.324 151.985 121.236 152.038C121.148 152.091 121.072 152.161 121.012 152.244C120.951 152.327 120.908 152.421 120.884 152.521C120.861 152.621 120.858 152.725 120.875 152.826C120.975 153.489 123.014 166.851 126.836 176.277C124.568 173.903 122.094 171.422 119.428 168.89C117.681 167.229 115.805 165.504 113.816 163.743C107.791 152.37 105.438 135.878 105.417 135.714C105.412 135.605 105.384 135.498 105.336 135.4C105.287 135.303 105.219 135.216 105.135 135.146C105.051 135.076 104.954 135.025 104.849 134.995C104.744 134.965 104.634 134.957 104.526 134.972C104.418 134.987 104.314 135.024 104.221 135.082C104.128 135.139 104.048 135.215 103.987 135.305C103.925 135.395 103.883 135.497 103.862 135.604C103.842 135.711 103.845 135.821 103.869 135.928C103.869 136.084 105.859 149.91 110.829 161.154C109.113 159.7 107.32 158.236 105.452 156.762C105.385 156.683 105.302 156.617 105.21 156.57C101.303 153.504 97.0812 150.445 92.5892 147.521C86.5428 134.117 85.1381 125.054 85.1239 124.969C85.0922 124.763 84.9809 124.578 84.8141 124.454C84.6474 124.33 84.4385 124.277 84.2326 124.305C84.0277 124.337 83.8436 124.449 83.7206 124.616C83.5977 124.783 83.5459 124.992 83.5766 125.197C83.6265 125.553 84.8672 133.61 90.2148 146.01C89.074 145.297 87.9165 144.596 86.7424 143.906C86.6465 143.804 86.5225 143.732 86.3859 143.7C77.5453 138.441 68.0653 134.341 58.1789 131.5C58.0796 131.472 57.9759 131.464 57.8736 131.477C57.7714 131.489 57.6726 131.522 57.5829 131.572C57.4017 131.675 57.2685 131.845 57.2128 132.045C57.157 132.246 57.1831 132.46 57.2854 132.641C57.3877 132.822 57.5578 132.956 57.7582 133.011C66.3649 135.468 74.6579 138.913 82.4715 143.279C75.4019 143.005 68.3607 144.318 61.8652 147.122C61.7716 147.166 61.6874 147.227 61.6176 147.303C61.5477 147.379 61.4936 147.468 61.4581 147.565C61.4227 147.662 61.4067 147.765 61.4111 147.868C61.4155 147.972 61.4402 148.073 61.4837 148.167C61.5273 148.26 61.5888 148.344 61.6649 148.414C61.741 148.484 61.83 148.538 61.927 148.574C62.024 148.609 62.127 148.625 62.2302 148.621C62.3334 148.616 62.4347 148.592 62.5283 148.548C62.6424 148.491 73.7726 143.35 85.8369 145.197C91.4618 148.516 96.8833 152.169 102.073 156.135C89.4305 155.051 76.6104 160.669 76.0329 160.926C75.843 161.01 75.6942 161.167 75.6194 161.36C75.5445 161.554 75.5496 161.77 75.6336 161.96C75.7194 162.149 75.8757 162.296 76.069 162.371C76.2623 162.445 76.4772 162.441 76.6675 162.359C76.8172 162.288 91.5268 155.849 104.476 158.01C109.681 162.117 114.322 166.231 118.301 170.003L119.912 171.557C108.162 169.276 96.5964 173.475 96.0759 173.696C95.8933 173.777 95.7483 173.924 95.6705 174.108C95.5926 174.291 95.5878 174.498 95.6568 174.685C95.7259 174.872 95.8637 175.026 96.0423 175.115C96.2208 175.205 96.4266 175.222 96.6177 175.165C96.7532 175.115 109.98 170.309 122.059 173.703C129.354 180.903 136.086 188.653 142.194 196.884C142.287 197.016 142.418 197.116 142.57 197.171C142.722 197.226 142.887 197.233 143.043 197.19C143.131 197.167 143.214 197.126 143.285 197.069C143.377 197.014 143.457 196.94 143.519 196.852C143.58 196.764 143.623 196.664 143.644 196.558C143.665 196.453 143.663 196.344 143.639 196.239C143.616 196.135 143.57 196.036 143.506 195.95Z" fill="#92CFEC"/>
<path d="M108.903 189.697C108.903 189.697 93.9654 186.845 87.3201 197.027C80.6747 207.209 89.6089 210.881 96.8318 205.676C104.055 200.471 108.903 189.697 108.903 189.697Z" fill="#BDEAF5"/>
<path d="M88.6393 182.545C88.0475 182.274 81.4664 181.739 73.4663 185.511C65.4662 189.283 60.6319 197.447 65.0241 200.642C69.4163 203.836 72.6249 202.224 77.1455 198.267C81.666 194.31 88.6393 182.545 88.6393 182.545Z" fill="#BDEAF5"/>
<path d="M66.9849 178.552C61.127 178.577 55.4178 180.399 50.6282 183.772C42.621 189.412 46.6211 197.226 52.0543 195.665C57.4875 194.103 66.9849 178.552 66.9849 178.552Z" fill="#BDEAF5"/>
<path d="M60.632 176.905C60.632 176.905 48.6247 184.035 40.2824 184.37C31.9401 184.705 28.1611 173.154 38.5925 170.823C49.024 168.491 60.632 176.905 60.632 176.905Z" fill="#BDEAF5"/>
<path d="M74.0509 174.78C69.8079 173.782 65.8418 171.848 62.4429 169.119C57.024 164.67 54.0578 156.035 59.819 153.675C65.5802 151.315 68.9457 159.265 71.1061 165.005C72.3289 168.186 73.3132 171.453 74.0509 174.78Z" fill="#BDEAF5"/>
<path d="M97.6157 180.235C97.6157 180.235 86.621 177.44 80.817 170.866C75.013 164.292 71.9399 152.955 81.0951 151.8C90.2502 150.644 97.6157 180.235 97.6157 180.235Z" fill="#BDEAF5"/>
<path d="M117.673 187.365C117.673 187.365 106.714 183.437 101.652 175.707C96.5894 167.978 98.0869 159.123 104.34 158.26C110.593 157.397 120.782 180.97 117.673 187.365Z" fill="#BDEAF5"/>
<path d="M141.217 200.919C135.536 197.602 129.673 194.608 123.656 191.949C115.991 186.324 106.329 170.987 106.23 170.837C106.125 170.669 105.957 170.549 105.764 170.504C105.571 170.459 105.368 170.493 105.199 170.598C105.031 170.703 104.911 170.871 104.866 171.064C104.822 171.257 104.855 171.46 104.96 171.628C105.303 172.17 112.205 183.122 119.107 189.967C116.212 188.748 113.096 187.5 109.795 186.288C107.656 185.497 105.324 184.691 102.907 183.899C93.295 176.199 84.967 162.602 84.8885 162.466C84.7839 162.297 84.6165 162.175 84.4229 162.129C84.2293 162.082 84.0251 162.114 83.8547 162.217C83.7672 162.264 83.6907 162.329 83.63 162.408C83.5693 162.487 83.5258 162.578 83.5023 162.675C83.4788 162.771 83.4758 162.872 83.4935 162.97C83.5112 163.068 83.5492 163.161 83.6051 163.243C83.6835 163.372 90.664 174.773 99.2917 182.766C97.2309 182.138 95.099 181.525 92.8744 180.948C92.7853 180.903 92.6884 180.877 92.5892 180.869C87.9902 179.657 83.1203 178.573 78.065 177.71C67.662 168.234 62.9846 160.805 62.9347 160.733C62.8297 160.565 62.6622 160.445 62.469 160.401C62.2758 160.356 62.0727 160.39 61.9044 160.495C61.7361 160.6 61.6164 160.767 61.5716 160.96C61.5268 161.154 61.5606 161.357 61.6655 161.525C61.8509 161.817 66.0007 168.42 75.3983 177.283C74.1291 177.09 72.8457 176.919 71.5551 176.755C71.4305 176.706 71.2958 176.689 71.1629 176.705C61.3993 175.446 51.5145 175.446 41.7509 176.705C41.5542 176.732 41.3761 176.835 41.2558 176.993C41.1354 177.151 41.0827 177.35 41.1092 177.546C41.1356 177.743 41.2392 177.921 41.397 178.042C41.5547 178.162 41.7539 178.215 41.9505 178.188C50.4472 177.075 59.0445 176.953 67.5693 177.825C61.253 180.265 55.5656 184.093 50.9274 189.026C50.796 189.175 50.7289 189.369 50.741 189.567C50.753 189.765 50.8432 189.95 50.9916 190.081C51.1401 190.213 51.3346 190.28 51.5325 190.268C51.7304 190.256 51.9155 190.166 52.0469 190.017C52.1253 189.932 59.9543 181.183 71.2556 178.224C77.4557 179.002 83.6035 180.152 89.6658 181.668C78.1933 185.518 69.0595 195.322 68.646 195.764C68.5108 195.911 68.4393 196.105 68.4473 196.304C68.4554 196.503 68.5422 196.691 68.6888 196.827C68.8353 196.962 69.0296 197.033 69.2288 197.025C69.4281 197.017 69.6159 196.93 69.7512 196.784C69.851 196.67 80.3324 185.425 92.5678 182.395C98.6997 184.028 104.347 185.875 109.267 187.686L111.278 188.434C100.083 190.887 91.5196 198.973 91.1346 199.343C90.9909 199.481 90.9075 199.669 90.9028 199.868C90.8981 200.066 90.9725 200.259 91.1096 200.402C91.2467 200.546 91.4353 200.629 91.6339 200.634C91.8325 200.639 92.0248 200.564 92.1685 200.427C92.2683 200.327 102.065 191.087 113.966 189.475C123.11 193.032 131.968 197.285 140.462 202.196C140.592 202.276 140.744 202.314 140.897 202.305C141.05 202.296 141.197 202.241 141.317 202.146C141.387 202.091 141.445 202.023 141.488 201.946C141.543 201.862 141.58 201.768 141.596 201.669C141.613 201.57 141.608 201.469 141.582 201.372C141.557 201.275 141.511 201.185 141.448 201.107C141.385 201.029 141.307 200.965 141.217 200.919Z" fill="#92CFEC"/>
<g style="mix-blend-mode:multiply">
<g style="mix-blend-mode:multiply">
<path d="M193.703 332.465C274.186 332.465 339.43 318.98 339.43 302.347C339.43 285.713 274.186 272.229 193.703 272.229C113.22 272.229 47.9756 285.713 47.9756 302.347C47.9756 318.98 113.22 332.465 193.703 332.465Z" fill="#CFD1D2"/>
</g>
</g>
<path d="M380.6 185.404C380.6 185.404 324.827 220.271 311.487 223.273C298.146 226.275 293.319 218.495 274.809 221.262C270.91 221.867 266.975 222.213 263.03 222.296V222.26C263.03 222.26 254.138 221.426 253.761 222.367C253.725 222.46 253.761 222.553 253.867 222.645V222.695C253.842 222.746 253.82 222.798 253.803 222.852V222.916C253.799 222.976 253.799 223.035 253.803 223.094C253.803 223.094 253.803 223.144 253.803 223.173C253.803 223.201 253.803 223.316 253.803 223.394C253.8 223.422 253.8 223.451 253.803 223.48C253.803 223.565 253.803 223.651 253.803 223.743V223.836C253.803 223.957 253.803 224.093 253.846 224.235C254.188 226.952 256.805 229.077 261.361 230.496C262.274 230.781 263.265 231.038 264.327 231.259C266.722 231.752 269.147 232.088 271.586 232.264C271.727 232.27 271.867 232.284 272.007 232.307H272.128L272.363 232.342H272.484L272.663 232.392H272.755L272.948 232.471H272.991L273.076 232.535L273.119 232.578C273.121 232.597 273.121 232.616 273.119 232.635V232.692V232.742C273.101 232.842 273.051 232.935 272.976 233.005C272.976 233.041 272.905 233.07 272.869 233.105H272.827L272.677 233.212C272.447 233.365 272.209 233.506 271.964 233.633C266.723 236.3 246.11 241.754 238.202 245.84C236.413 246.367 233.924 247.444 234.466 249.22C234.951 250.753 236.976 250.745 238.637 250.446H240.463H240.819H241.04H241.411H241.632H242.024H242.238L242.659 250.403H242.858L243.308 250.353H243.507L243.964 250.296H244.163L244.655 250.225H244.833L245.347 250.146H245.511L246.06 250.061H246.203L246.78 249.961H246.901L247.522 249.854H247.607L248.27 249.733H248.313C256.684 248.171 266.003 245.455 266.466 246.168C266.475 246.184 266.48 246.203 266.48 246.221C266.48 246.24 266.475 246.258 266.466 246.275C265.939 247.829 242.794 254.453 236.833 259.979C235.479 260.827 234.374 261.968 234.972 263.266C235.571 264.564 237.29 264.578 238.851 264.193C239.289 264.193 239.752 264.172 240.242 264.129L240.869 264.065C249.14 263.13 264.52 257.305 269.647 255.508L270.324 255.273C270.723 255.138 271.037 255.045 271.187 255.002C271.336 254.959 271.372 254.966 271.358 255.002C270.645 256.293 253.347 264.421 247.308 269.733C245.803 270.696 243.985 272.243 244.876 273.676C245.653 274.931 247.4 274.532 248.848 273.897C249.618 273.792 250.382 273.644 251.137 273.455C256.213 272.207 263.622 269.027 269.632 266.482L270.495 266.111H270.566L271.607 265.676L271.736 265.619L272.755 265.191H272.805L274.73 264.407H274.802L275.672 264.065C276.228 263.851 276.741 263.658 277.205 263.501H277.254C277.476 263.423 277.689 263.352 277.889 263.295C278.219 263.191 278.555 263.105 278.894 263.038H278.93C279.046 263.029 279.163 263.029 279.279 263.038C279.359 263.022 279.442 263.022 279.522 263.038C279.549 263.043 279.575 263.055 279.598 263.071C279.621 263.088 279.64 263.109 279.654 263.133C279.668 263.157 279.677 263.184 279.68 263.212C279.683 263.24 279.68 263.268 279.672 263.295C279.251 265.533 268.042 273.405 265.796 277.327C265.219 277.926 264.876 278.603 265.283 279.259C265.946 280.336 267.579 279.78 268.727 279.202C273.946 277.555 284.092 270.004 294.723 262.803L294.973 262.631L296.171 261.826L296.563 261.562L297.625 260.849L298.117 260.521L299.109 259.872L299.643 259.523L300.606 258.895L301.155 258.546L302.167 257.904L302.645 257.597L304.128 256.685C311.258 252.307 326.36 246.474 341.077 241.298L345.783 239.665C347.865 238.952 349.918 238.239 351.915 237.576L354.881 236.585C359.259 235.123 363.323 233.804 366.795 232.692L370.054 231.651L373.69 230.503C376.607 229.59 378.311 229.077 378.311 229.077L381.826 212.856L380.6 185.404Z" fill="#C8887C"/>
<path d="M152.119 246.296C145.517 241.69 121.723 238.111 121.01 236.678C121.002 236.661 120.997 236.643 120.997 236.624C120.997 236.605 121.002 236.587 121.01 236.571C121.381 235.858 130.993 237.284 139.47 237.804L140.183 237.84H140.226H140.875H140.989H141.581H141.716H142.28H145.132H145.552H145.766H146.166H146.38H146.757H146.971H147.328H147.542L147.877 237.804H148.084L148.405 237.761H148.611L148.904 237.711H149.103H149.139C150.822 237.79 152.84 237.555 153.132 236.022C153.467 234.246 150.836 233.512 148.996 233.219C140.647 230.239 119.506 227.48 113.973 225.547C113.704 225.459 113.442 225.352 113.189 225.226L113.025 225.141H112.982L112.861 225.055H112.825C112.745 224.995 112.687 224.91 112.661 224.813C112.658 224.799 112.658 224.784 112.661 224.77C112.661 224.77 112.661 224.727 112.661 224.713C112.66 224.694 112.66 224.675 112.661 224.656L112.697 224.606L112.775 224.535L112.818 224.499L113.003 224.406L113.082 224.371L113.26 224.307L113.374 224.271L113.602 224.2H113.716L114.137 224.107C115.463 223.841 116.718 223.553 117.902 223.244C118.486 223.095 119.064 222.938 119.613 222.774C126.793 220.635 130.736 217.69 130.736 214.217C130.736 214.075 130.736 213.946 130.736 213.825C130.736 213.704 130.736 213.768 130.736 213.733V213.483C130.733 213.455 130.733 213.426 130.736 213.397L130.693 213.191V213.119C130.678 213.059 130.659 212.999 130.636 212.941V212.884L130.551 212.742V212.699C130.629 212.599 130.665 212.499 130.622 212.421C130.158 211.551 121.438 213.433 121.438 213.433V213.469C117.511 213.873 113.562 214.018 109.616 213.904C90.9063 213.476 87.0845 221.554 73.473 220.278C59.8614 219.002 7.56152 195.194 7.56152 195.194L7.76117 218.488L7.89664 233.711C7.89664 233.711 67.5193 243.694 84.9526 251.323L86.5355 252.036L87.0631 252.278C87.4268 252.442 87.7761 252.599 88.1398 252.77L88.7245 253.041L89.7512 253.519L90.3501 253.804L91.3912 254.296L91.9402 254.56L93.0525 255.102L93.5088 255.323L94.7637 255.936L95.0632 256.086L96.5392 256.799L96.5962 256.835C107.484 262.254 117.752 267.801 122.893 268.714C124.098 269.134 125.788 269.476 126.315 268.357C126.636 267.644 126.215 267.059 125.567 266.56C122.85 263.045 110.743 256.82 110.044 254.717C110.033 254.692 110.027 254.665 110.027 254.637C110.027 254.61 110.033 254.582 110.045 254.557C110.056 254.532 110.073 254.51 110.094 254.492C110.115 254.474 110.139 254.461 110.165 254.453C110.24 254.42 110.319 254.401 110.401 254.396H110.8C111.144 254.418 111.487 254.461 111.827 254.524L112.483 254.646H112.533C113.01 254.738 113.545 254.86 114.13 255.002L115.035 255.23H115.099L117.124 255.758H117.167L118.258 256.05H118.322L120.561 256.656C126.814 258.382 134.501 260.521 139.663 261.106C140.434 261.199 141.21 261.251 141.987 261.262C143.506 261.697 145.289 261.869 145.902 260.549C146.615 259.052 144.618 257.79 143 257.041C136.34 252.656 118.165 246.916 117.331 245.769C117.246 245.654 118.643 245.954 120.896 246.482L122.615 246.852C123.641 247.081 124.754 247.323 126.002 247.565C127.463 247.872 129.039 248.2 130.672 248.514L132.319 248.835C136.198 249.548 140.283 250.261 143.834 250.581L144.59 250.653C145.831 250.76 147 250.824 148.055 250.838C148.904 250.838 149.688 250.838 150.38 250.753L150.693 250.717C152.298 250.902 153.98 250.717 154.43 249.348C154.879 247.979 153.574 246.952 152.119 246.296Z" fill="#DEA395"/>
<path d="M69.8654 217.825C69.8654 217.825 73.5944 247.116 62.1077 247.116C60.6817 247.116 0.659668 234.481 0.659668 234.481V189.112L69.8654 217.825Z" fill="#5685E1"/>
<path d="M64.8885 215.786C62.9705 219.48 58.3073 224.278 47.4623 226.182C36.3178 228.107 13.8577 219.416 0.659668 213.647V234.467C0.659668 234.467 60.6745 247.102 62.1077 247.102C73.5944 247.102 69.8654 217.811 69.8654 217.811L64.8885 215.786Z" fill="#1C5DDC"/>
<path d="M148.697 136.163C145.684 137.592 143.014 139.652 140.867 142.204C138.721 144.755 137.147 147.739 136.255 150.951C133.221 149.565 129.925 148.848 126.59 148.848C123.255 148.848 119.958 149.565 116.925 150.951C106.7 155.707 99.135 172.456 114.401 187.059C129.667 201.661 159.128 200.142 159.128 200.142C159.128 200.142 179.278 178.595 177.945 157.511C176.612 136.427 158.929 131.407 148.697 136.163Z" fill="#C13D3D"/>
<path d="M165.182 174.987C159.143 185.088 150.377 193.28 139.891 198.624C146.237 199.808 152.69 200.314 159.143 200.135C159.143 200.135 179.293 178.588 177.959 157.504C176.854 140.106 164.626 133.661 154.636 134.609C154.636 134.609 182.53 145.689 165.182 174.987Z" fill="#B02C2C"/>
<path d="M118.622 187.743C118.622 187.743 105.189 177.347 109.731 164.927C114.272 152.506 127.97 153.575 127.97 153.575C127.97 153.575 105.645 165.39 118.622 187.743Z" fill="#D95F5F"/>
<path d="M250.794 129.582C247.946 128.168 244.827 127.385 241.649 127.284C238.471 127.183 235.309 127.767 232.377 128.997C231.625 125.907 230.217 123.015 228.249 120.518C226.28 118.02 223.797 115.976 220.969 114.523C211.371 109.674 194.366 113.903 192.448 133.953C190.53 154.003 209.068 175.144 209.068 175.144C209.068 175.144 237.097 177.511 252.092 164.063C267.087 150.616 260.391 134.43 250.794 129.582Z" fill="#C13D3D"/>
<path d="M231.493 164.834C220.366 166.274 209.059 164.544 198.872 159.842C201.721 165.289 205.138 170.418 209.068 175.144C209.068 175.144 237.097 177.511 252.092 164.063C264.463 152.962 262.074 140.006 255.457 133.083C255.457 133.083 263.636 160.527 231.493 164.834Z" fill="#B02C2C"/>
<path d="M194.416 137.518C194.416 137.518 194.266 121.325 206.245 117.389C218.223 113.454 225.496 124.341 225.496 124.341C225.496 124.341 203.499 114.601 194.416 137.518Z" fill="#D95F5F"/>
<path d="M185.86 84.904C183.552 85.397 181.378 86.381 179.485 87.788C177.591 89.196 176.023 90.994 174.886 93.061C173.03 91.615 170.884 90.584 168.595 90.041C166.305 89.497 163.925 89.452 161.617 89.91C153.774 91.514 145.873 101.817 154.002 114.352C162.13 126.887 182.658 130.63 182.658 130.63C182.658 130.63 200.034 119.079 202.544 104.348C205.054 89.617 193.703 83.293 185.86 84.904Z" fill="#C13D3D"/>
<path d="M190.894 114.309C185.09 120.269 177.723 124.471 169.638 126.431C173.811 128.277 178.169 129.676 182.637 130.602C182.637 130.602 200.013 119.051 202.523 104.32C204.598 92.1991 197.225 85.739 190.195 84.769C190.195 84.769 207.607 96.9691 190.894 114.309Z" fill="#B02C2C"/>
<path d="M156.775 115.514C156.775 115.514 149.217 106.174 154.365 98.359C159.513 90.544 168.768 93.51 168.768 93.51C168.768 93.51 151.478 98.0171 156.775 115.514Z" fill="#D95F5F"/>
<path d="M231.621 152.47C227.204 151.687 222.67 151.864 218.327 152.988C213.984 154.113 209.934 156.158 206.451 158.987C204.207 155.101 201.153 151.744 197.497 149.143C193.841 146.542 189.667 144.759 185.261 143.914C170.337 141.161 148.989 153.639 154.344 181.554C159.699 209.469 193.211 230.752 193.211 230.752C193.211 230.752 232.106 222.831 247.072 198.666C262.038 174.502 246.552 155.222 231.621 152.47Z" fill="#DC495D"/>
<path d="M219.443 207.893C202.858 215.266 186.729 215.95 173.289 214.103C179.322 220.344 186 225.928 193.211 230.759C193.211 230.759 232.106 222.838 247.072 198.674C259.422 178.709 251.03 162.131 239.329 155.386C239.329 155.386 261.304 189.283 219.443 207.893Z" fill="#C13D3D"/>
<path d="M158.444 185.604C158.444 185.604 151.813 163.736 166.473 153.639C181.132 143.543 195.328 155.408 195.328 155.408C195.328 155.408 161.617 150.966 158.444 185.604Z" fill="#E08D8D"/>
<path d="M193.724 195.116V195.108H89.7441V308.985L193.76 317.498L297.739 308.992V195.116H193.724Z" fill="#DFC822"/>
<path d="M288.385 258.988L209.952 261.683C209.443 261.697 208.937 261.61 208.462 261.425C207.987 261.241 207.554 260.964 207.188 260.61C206.822 260.256 206.531 259.832 206.331 259.364C206.131 258.895 206.026 258.392 206.024 257.883L205.888 241.455C205.875 240.465 206.255 239.511 206.945 238.801C207.634 238.091 208.578 237.684 209.567 237.669L287.907 236.521C288.918 236.511 289.892 236.903 290.615 237.61C291.338 238.317 291.751 239.281 291.764 240.293L291.985 255.173C292.005 256.154 291.638 257.103 290.965 257.817C290.291 258.53 289.365 258.951 288.385 258.988Z" fill="white"/>
<g style="mix-blend-mode:multiply">
<g style="mix-blend-mode:multiply">
<path d="M211.471 226.289C211.471 226.289 269.996 238.346 297.746 242.688V195.108H193.703L211.471 226.289Z" fill="#CFD1D2"/>
</g>
</g>
<path d="M193.76 317.498L89.7441 308.985V195.108H193.724L193.76 317.498Z" fill="#F9E23A"/>
<g style="mix-blend-mode:multiply">
<g style="mix-blend-mode:multiply">
<path d="M89.7441 240.934C112.155 237.861 177.539 224.97 177.539 224.97L193.703 195.108H89.7441V240.934Z" fill="#CFD1D2"/>
</g>
</g>
<path d="M193.724 195.102L172.162 216.628H68.8101L89.7443 195.102H193.724Z" fill="#DFC822"/>
<path d="M193.724 195.102L215.279 216.628H318.631L297.704 195.102H193.724Z" fill="#FAE12F"/>
<path d="M8.11084 230.809C8.11084 230.809 60.4107 254.624 74.0151 255.9C87.6196 257.177 91.4485 249.091 110.158 249.519C128.868 249.947 131.435 245.597 131.435 249.847C131.435 254.097 125.467 257.597 114.836 259.722C104.205 261.847 152.954 266.453 153.104 271.202C153.289 277.049 120.789 270.781 121.638 272.478C122.486 274.175 155.998 278.931 154.38 284.813C152.883 290.239 117.467 280.92 117.873 281.462C118.971 282.924 147.97 291.772 145.874 295.865C143.442 300.621 109.731 287.787 110.579 290.339C111.428 292.892 129.075 301.512 126.365 303.986C122.978 307.074 102.928 294.589 85.4948 286.938C68.0614 279.287 8.44594 269.327 8.44594 269.327L8.11084 230.809Z" fill="#ECB8A8"/>
<path d="M114.665 261.255C112.96 260.664 112.732 260.143 114.836 259.722C125.467 257.583 131.435 254.104 131.435 249.847C131.435 248.678 131.235 248.164 130.565 248.015C131.478 249.676 132.055 252.328 126.772 253.897C119.057 256.193 109.039 256.036 109.131 257.94C109.196 259.33 110.9 260.485 114.665 261.255Z" fill="#DEA395"/>
<path d="M132.961 293.669C121.616 290.995 108.005 285.427 108.005 287.487C108.005 287.922 109.053 288.856 110.693 290.076C112.661 289.142 136.212 297.684 143.72 296.878C140.74 295.872 137.053 294.639 132.961 293.669Z" fill="#DEA395"/>
<path d="M8.31738 254.104L8.45288 269.327C8.45288 269.327 68.0685 279.309 85.5018 286.938C101.566 293.99 119.848 305.135 125.267 304.429C122.021 302.883 118.873 301.14 115.841 299.209C110.486 295.915 88.8316 280.671 84.7103 276.115C80.5891 271.558 75.0204 274.689 58.1076 272.2C46.357 270.51 22.0359 260.214 8.31738 254.104Z" fill="#DEA395"/>
<path d="M128.818 280.892C117.274 278.004 109.852 279.031 117.859 281.462C117.452 280.921 152.868 290.24 154.366 284.814C154.414 284.632 154.43 284.444 154.415 284.258C150.829 285.662 139.399 283.523 128.818 280.892Z" fill="#DEA395"/>
<path d="M132.961 270.582C122.444 268.927 119.349 269.754 119.763 271.401C119.834 271.687 120.526 272.015 121.638 272.371C122.315 271.073 153.282 276.913 153.103 271.202C153.073 270.925 152.938 270.669 152.725 270.489C148.818 272.863 142.365 272.057 132.961 270.582Z" fill="#DEA395"/>
<path d="M149.096 268.842C148.75 268.79 148.396 268.867 148.103 269.059C147.809 269.251 147.597 269.544 147.506 269.883C147.333 270.539 147.263 271.217 147.3 271.894C147.309 272.243 147.442 272.577 147.674 272.838C147.906 273.099 148.223 273.27 148.569 273.32C150.287 273.548 153.439 273.698 153.809 271.744C154.18 269.79 150.922 269.07 149.096 268.842Z" fill="#F3DED9"/>
<path d="M150.366 281.27C150.002 281.17 149.615 281.206 149.275 281.37C148.936 281.534 148.667 281.815 148.519 282.161C148.239 282.843 148.068 283.565 148.013 284.3C147.977 284.672 148.073 285.044 148.285 285.351C148.496 285.659 148.808 285.882 149.168 285.983C150.979 286.475 154.337 287.074 155.007 285.035C155.678 282.995 152.262 281.769 150.366 281.27Z" fill="#F3DED9"/>
<path d="M142.743 292.379C142.43 292.256 142.084 292.249 141.765 292.357C141.447 292.465 141.177 292.683 141.004 292.97C140.668 293.541 140.427 294.162 140.29 294.81C140.216 295.139 140.261 295.483 140.416 295.782C140.571 296.081 140.828 296.315 141.139 296.443C142.701 297.077 145.631 297.983 146.451 296.243C147.271 294.503 144.383 293.028 142.743 292.379Z" fill="#F3DED9"/>
<path d="M124.062 301.077C123.828 300.981 123.567 300.973 123.327 301.054C123.087 301.135 122.885 301.301 122.757 301.519C122.51 301.949 122.334 302.416 122.237 302.903C122.184 303.149 122.22 303.406 122.337 303.628C122.454 303.851 122.646 304.026 122.878 304.122C124.041 304.6 126.237 305.277 126.857 303.972C127.477 302.667 125.288 301.569 124.062 301.077Z" fill="#F3DED9"/>
<path d="M121.994 249.056C121.994 249.056 121.196 250.168 123.057 250.567C124.918 250.967 131.649 248.899 131.178 248.036C130.707 247.173 121.994 249.056 121.994 249.056Z" fill="#F3DED9"/>
<path d="M378.325 221.034C378.325 221.034 329.497 251.893 316.156 254.895C302.816 257.897 297.989 250.111 279.479 252.877C260.969 255.644 257.86 251.523 258.409 255.872C258.958 260.221 265.325 263.045 276.149 263.894C286.973 264.742 239.193 275.523 239.657 280.4C240.22 286.396 271.664 275.936 271.03 277.783C270.395 279.63 237.767 288.657 240.127 294.468C242.309 299.83 276.256 285.912 275.921 286.489C275.015 288.122 247.4 300.749 249.988 304.707C253.012 309.263 284.812 291.944 284.292 294.653C283.771 297.363 267.379 308.379 270.388 310.575C274.138 313.306 292.434 298.047 308.748 288.051C325.062 278.054 382.902 260.443 382.902 260.443L378.325 221.034Z" fill="#DEA395"/>
<path d="M276.513 265.441C278.131 264.621 278.288 264.065 276.149 263.894C265.326 263.045 258.951 260.214 258.409 255.872C258.26 254.674 258.409 254.118 259.037 253.89C258.324 255.701 258.11 258.482 263.557 259.43C271.508 260.813 281.383 259.38 281.575 261.362C281.689 262.788 280.149 264.179 276.513 265.441Z" fill="#C8887C"/>
<path d="M262.53 300.856C273.433 296.699 286.224 289.312 286.488 291.423C286.545 291.865 285.618 292.949 284.149 294.396C282.074 293.683 259.807 305.363 252.256 305.47C255.087 304.079 258.587 302.354 262.53 300.856Z" fill="#C8887C"/>
<path d="M381.12 244.863L382.938 260.442C382.938 260.442 325.069 278.054 308.784 288.05C293.746 297.263 277.04 310.938 271.579 310.867C274.602 308.891 277.498 306.726 280.249 304.386C285.147 300.35 307.208 286.154 309.554 279.516C311.636 273.64 320.199 266.182 336.649 261.54C348.071 258.339 368.285 252.863 381.12 244.863Z" fill="#C8887C"/>
<path d="M265.005 287.273C276.092 282.881 283.586 282.995 275.957 286.489C276.292 285.89 242.345 299.829 240.163 294.468C240.092 294.288 240.051 294.097 240.042 293.904C243.771 294.881 254.83 291.288 265.005 287.273Z" fill="#C8887C"/>
<path d="M259.564 277.248C269.782 274.254 272.955 274.71 272.762 276.45C272.727 276.742 272.085 277.163 271.022 277.676C270.188 276.421 240.206 286.232 239.65 280.4C239.642 280.117 239.741 279.842 239.928 279.63C244.12 281.562 250.402 279.958 259.564 277.248Z" fill="#C8887C"/>
<path d="M243.942 277.548C244.283 277.453 244.648 277.489 244.964 277.649C245.28 277.808 245.526 278.08 245.653 278.41C245.911 279.06 246.068 279.745 246.117 280.443C246.152 280.793 246.064 281.144 245.867 281.436C245.671 281.728 245.378 281.941 245.04 282.04C243.364 282.489 240.256 283.038 239.635 281.084C239.015 279.131 242.188 278.004 243.942 277.548Z" fill="#ECB8A8"/>
<path d="M244.099 290.161C244.455 290.02 244.85 290.014 245.209 290.146C245.568 290.277 245.866 290.537 246.046 290.874C246.413 291.543 246.675 292.265 246.823 293.013C246.906 293.385 246.858 293.773 246.688 294.113C246.518 294.454 246.236 294.725 245.889 294.881C244.156 295.594 240.898 296.643 239.971 294.639C239.044 292.635 242.281 290.91 244.099 290.161Z" fill="#ECB8A8"/>
<path d="M252.648 300.749C252.946 300.588 253.292 300.538 253.624 300.608C253.956 300.679 254.252 300.865 254.459 301.135C254.853 301.684 255.16 302.29 255.372 302.931C255.487 303.254 255.488 303.607 255.374 303.931C255.26 304.254 255.037 304.528 254.744 304.707C253.275 305.548 250.466 306.846 249.446 305.163C248.427 303.48 251.108 301.619 252.648 300.749Z" fill="#ECB8A8"/>
<path d="M272.306 307.317C272.528 307.191 272.788 307.151 273.037 307.204C273.287 307.256 273.508 307.398 273.661 307.602C273.966 308.012 274.207 308.466 274.374 308.949C274.459 309.192 274.459 309.456 274.374 309.699C274.288 309.942 274.122 310.148 273.903 310.283C272.805 310.91 270.716 311.88 269.939 310.618C269.162 309.356 271.151 307.965 272.306 307.317Z" fill="#ECB8A8"/>
<path d="M267.671 253.876C267.671 253.876 268.613 254.917 266.816 255.558C265.019 256.2 258.081 254.931 258.431 253.983C258.78 253.034 267.671 253.876 267.671 253.876Z" fill="#ECB8A8"/>
<path d="M62.457 251.672C62.628 257.318 62.055 262.961 60.7529 268.457C58.5639 278.189 57.1022 281.106 57.1022 281.106L5.05176 271.123V228.071L62.457 251.672Z" fill="#5685E1"/>
<path d="M60.7531 268.457C62.0553 262.961 62.6283 257.318 62.4573 251.672L57.0169 249.433C58.0294 252.442 59.4412 260.578 47.7477 265.883C38.7208 269.975 19.013 267.123 5.04492 264.4V271.131L57.0953 281.113C57.0953 281.113 58.5642 278.189 60.7531 268.457Z" fill="#1C5DDC"/>
</svg>
